<?xml version="1.0" encoding="UTF-8" standalone="no"?>
<!DOCTYPE svg PUBLIC "-//W3C//DTD SVG 1.1//EN"
 "http://www.w3.org/Graphics/SVG/1.1/DTD/svg11.dtd">
<!-- Generated by graphviz version 2.43.0 (0)
 -->
<!-- Title: %3 Pages: 1 -->
<svg width="183pt" height="256pt"
 viewBox="0.00 0.00 183.00 256.00" xmlns="http://www.w3.org/2000/svg" xmlns:xlink="http://www.w3.org/1999/xlink">
<g id="graph0" class="graph" transform="scale(1 1) rotate(0) translate(4 252)">
<title>%3</title>
<polygon fill="white" stroke="transparent" points="-4,4 -4,-252 179,-252 179,4 -4,4"/>
<g id="clust1" class="cluster">
<title>cluster_0</title>
<path fill="none" stroke="black" stroke-dasharray="5,2" d="M50,-164C50,-164 155,-164 155,-164 161,-164 167,-170 167,-176 167,-176 167,-228 167,-228 167,-234 161,-240 155,-240 155,-240 50,-240 50,-240 44,-240 38,-234 38,-228 38,-228 38,-176 38,-176 38,-170 44,-164 50,-164"/>
<text text-anchor="middle" x="102.5" y="-224.8" font-family="Times,serif" font-size="14.00">Inputs</text>
</g>
<g id="clust2" class="cluster">
<title>cluster_1</title>
<path fill="none" stroke="black" stroke-dasharray="5,2" d="M20,-8C20,-8 131,-8 131,-8 137,-8 143,-14 143,-20 143,-20 143,-78 143,-78 143,-84 137,-90 131,-90 131,-90 20,-90 20,-90 14,-90 8,-84 8,-78 8,-78 8,-20 8,-20 8,-14 14,-8 20,-8"/>
<text text-anchor="middle" x="75.5" y="-15.8" font-family="Times,serif" font-size="14.00">Outputs</text>
</g>
<!-- a -->
<g id="node1" class="node">
<title>a</title>
<path fill="none" stroke="black" d="M83.83,-205C83.83,-205 60.17,-205 60.17,-205 55.33,-205 50.5,-200.17 50.5,-195.33 50.5,-195.33 50.5,-185.67 50.5,-185.67 50.5,-180.83 55.33,-176 60.17,-176 60.17,-176 83.83,-176 83.83,-176 88.67,-176 93.5,-180.83 93.5,-185.67 93.5,-185.67 93.5,-195.33 93.5,-195.33 93.5,-200.17 88.67,-205 83.83,-205"/>
<text text-anchor="middle" x="72" y="-186.8" font-family="Times,serif" font-size="14.00">A</text>
</g>
<!-- e -->
<g id="node4" class="node">
<title>e</title>
<path fill="none" stroke="black" d="M117.83,-75C117.83,-75 94.17,-75 94.17,-75 89.33,-75 84.5,-70.17 84.5,-65.33 84.5,-65.33 84.5,-55.67 84.5,-55.67 84.5,-50.83 89.33,-46 94.17,-46 94.17,-46 117.83,-46 117.83,-46 122.67,-46 127.5,-50.83 127.5,-55.67 127.5,-55.67 127.5,-65.33 127.5,-65.33 127.5,-70.17 122.67,-75 117.83,-75"/>
<text text-anchor="middle" x="106" y="-56.8" font-family="Times,serif" font-size="14.00">E</text>
</g>
<!-- a&#45;&gt;e -->
<g id="edge3" class="edge">
<title>a&#45;&gt;e</title>
<path fill="none" stroke="black" d="M83.56,-175.58C104.93,-147.3 107.43,-136.93 106.54,-85.28"/>
<polygon fill="black" stroke="black" points="110.04,-85.07 106.34,-75.14 103.04,-85.21 110.04,-85.07"/>
</g>
<!-- c -->
<g id="node5" class="node">
<title>c</title>
<path fill="none" stroke="black" d="M56.83,-140C56.83,-140 33.17,-140 33.17,-140 28.33,-140 23.5,-135.17 23.5,-130.33 23.5,-130.33 23.5,-120.67 23.5,-120.67 23.5,-115.83 28.33,-111 33.17,-111 33.17,-111 56.83,-111 56.83,-111 61.67,-111 66.5,-115.83 66.5,-120.67 66.5,-120.67 66.5,-130.33 66.5,-130.33 66.5,-135.17 61.67,-140 56.83,-140"/>
<text text-anchor="middle" x="45" y="-121.8" font-family="Times,serif" font-size="14.00">C</text>
</g>
<!-- a&#45;&gt;c -->
<g id="edge1" class="edge">
<title>a&#45;&gt;c</title>
<path fill="none" stroke="black" d="M57.67,-175.84C51.96,-168.88 49.63,-162.7 47.81,-150.38"/>
<polygon fill="black" stroke="black" points="51.25,-149.7 46.53,-140.22 44.31,-150.58 51.25,-149.7"/>
</g>
<!-- b -->
<g id="node2" class="node">
<title>b</title>
<path fill="none" stroke="black" d="M144.83,-205C144.83,-205 121.17,-205 121.17,-205 116.33,-205 111.5,-200.17 111.5,-195.33 111.5,-195.33 111.5,-185.67 111.5,-185.67 111.5,-180.83 116.33,-176 121.17,-176 121.17,-176 144.83,-176 144.83,-176 149.67,-176 154.5,-180.83 154.5,-185.67 154.5,-185.67 154.5,-195.33 154.5,-195.33 154.5,-200.17 149.67,-205 144.83,-205"/>
<text text-anchor="middle" x="133" y="-186.8" font-family="Times,serif" font-size="14.00">B</text>
</g>
<!-- b&#45;&gt;e -->
<g id="edge4" class="edge">
<title>b&#45;&gt;e</title>
<path fill="none" stroke="black" d="M135.99,-175.71C144.3,-133.61 143.3,-123.67 120.18,-84.18"/>
<polygon fill="black" stroke="black" points="123.01,-82.1 114.9,-75.28 116.99,-85.67 123.01,-82.1"/>
</g>
<!-- d -->
<g id="node3" class="node">
<title>d</title>
<path fill="none" stroke="black" d="M56.83,-75C56.83,-75 33.17,-75 33.17,-75 28.33,-75 23.5,-70.17 23.5,-65.33 23.5,-65.33 23.5,-55.67 23.5,-55.67 23.5,-50.83 28.33,-46 33.17,-46 33.17,-46 56.83,-46 56.83,-46 61.67,-46 66.5,-50.83 66.5,-55.67 66.5,-55.67 66.5,-65.33 66.5,-65.33 66.5,-70.17 61.67,-75 56.83,-75"/>
<text text-anchor="middle" x="45" y="-56.8" font-family="Times,serif" font-size="14.00">D</text>
</g>
<!-- c&#45;&gt;d -->
<g id="edge2" class="edge">
<title>c&#45;&gt;d</title>
<path fill="none" stroke="black" d="M41.19,-110.76C38.13,-98.54 36.8,-91.41 37.19,-85.06"/>
<polygon fill="black" stroke="black" points="40.66,-85.57 39.23,-75.08 33.8,-84.17 40.66,-85.57"/>
</g>
</g>
</svg>
