<?xml version="1.0" encoding="UTF-8" standalone="no"?>
<!DOCTYPE svg PUBLIC "-//W3C//DTD SVG 1.1//EN"
 "http://www.w3.org/Graphics/SVG/1.1/DTD/svg11.dtd">
<!-- Generated by graphviz version 2.43.0 (0)
 -->
<!-- Title: %3 Pages: 1 -->
<svg width="269pt" height="277pt"
 viewBox="0.00 0.00 269.00 277.00" xmlns="http://www.w3.org/2000/svg" xmlns:xlink="http://www.w3.org/1999/xlink">
<g id="graph0" class="graph" transform="scale(1 1) rotate(0) translate(4 273)">
<title>%3</title>
<polygon fill="white" stroke="transparent" points="-4,4 -4,-273 265,-273 265,4 -4,4"/>
<!-- a -->
<g id="node1" class="node">
<title>a</title>
<path fill="#eef0e5" stroke="#163020" d="M156.83,-269C156.83,-269 37.17,-269 37.17,-269 32.33,-269 27.5,-264.17 27.5,-259.33 27.5,-259.33 27.5,-249.67 27.5,-249.67 27.5,-244.83 32.33,-240 37.17,-240 37.17,-240 156.83,-240 156.83,-240 161.67,-240 166.5,-244.83 166.5,-249.67 166.5,-249.67 166.5,-259.33 166.5,-259.33 166.5,-264.17 161.67,-269 156.83,-269"/>
<text text-anchor="middle" x="97" y="-250.8" font-family="Times,serif" font-size="14.00" fill="#163020">PyTorch nn.Module</text>
</g>
<!-- b -->
<g id="node2" class="node">
<title>b</title>
<path fill="#eef0e5" stroke="#163020" d="M141.83,-189C141.83,-189 52.17,-189 52.17,-189 47.33,-189 42.5,-184.17 42.5,-179.33 42.5,-179.33 42.5,-169.67 42.5,-169.67 42.5,-164.83 47.33,-160 52.17,-160 52.17,-160 141.83,-160 141.83,-160 146.67,-160 151.5,-164.83 151.5,-169.67 151.5,-169.67 151.5,-179.33 151.5,-179.33 151.5,-184.17 146.67,-189 141.83,-189"/>
<text text-anchor="middle" x="97" y="-170.8" font-family="Times,serif" font-size="14.00" fill="#163020">torch.fx.Graph</text>
</g>
<!-- a&#45;&gt;b -->
<g id="edge1" class="edge">
<title>a&#45;&gt;b</title>
<path fill="none" stroke="#163020" d="M97,-239.75C97,-229.99 97,-221.55 97,-199.28"/>
<polygon fill="#163020" stroke="#163020" points="100.5,-199.24 97,-189.24 93.5,-199.24 100.5,-199.24"/>
<text text-anchor="middle" x="172.5" y="-210.8" font-family="Times,serif" font-size="14.00" fill="#163020"> &#160;&#160;Step 1: PyTorch Dynamo</text>
</g>
<!-- c -->
<g id="node3" class="node">
<title>c</title>
<path fill="#eef0e5" stroke="#163020" d="M147.83,-109C147.83,-109 46.17,-109 46.17,-109 41.33,-109 36.5,-104.17 36.5,-99.33 36.5,-99.33 36.5,-89.67 36.5,-89.67 36.5,-84.83 41.33,-80 46.17,-80 46.17,-80 147.83,-80 147.83,-80 152.67,-80 157.5,-84.83 157.5,-89.67 157.5,-89.67 157.5,-99.33 157.5,-99.33 157.5,-104.17 152.67,-109 147.83,-109"/>
<text text-anchor="middle" x="97" y="-90.8" font-family="Times,serif" font-size="14.00" fill="#163020">hidet.FlowGraph</text>
</g>
<!-- b&#45;&gt;c -->
<g id="edge2" class="edge">
<title>b&#45;&gt;c</title>
<path fill="none" stroke="#163020" d="M97,-159.83C97,-148.55 97,-132.71 97,-119.45"/>
<polygon fill="#163020" stroke="#163020" points="100.5,-119.08 97,-109.08 93.5,-119.08 100.5,-119.08"/>
<text text-anchor="middle" x="174" y="-130.8" font-family="Times,serif" font-size="14.00" fill="#163020"> &#160;&#160;Step 2: Operator mapping</text>
</g>
<!-- d -->
<g id="node4" class="node">
<title>d</title>
<path fill="#eef0e5" stroke="#163020" d="M184.33,-29C184.33,-29 9.67,-29 9.67,-29 4.83,-29 0,-24.17 0,-19.33 0,-19.33 0,-9.67 0,-9.67 0,-4.83 4.83,0 9.67,0 9.67,0 184.33,0 184.33,0 189.17,0 194,-4.83 194,-9.67 194,-9.67 194,-19.33 194,-19.33 194,-24.17 189.17,-29 184.33,-29"/>
<text text-anchor="middle" x="97" y="-10.8" font-family="Times,serif" font-size="14.00" fill="#163020">hidet.runtime.CompiledGraph</text>
</g>
<!-- c&#45;&gt;d -->
<g id="edge3" class="edge">
<title>c&#45;&gt;d</title>
<path fill="none" stroke="#163020" d="M97,-79.89C97,-58.63 97,-47.69 97,-39.18"/>
<polygon fill="#163020" stroke="#163020" points="100.5,-39.11 97,-29.11 93.5,-39.11 100.5,-39.11"/>
<text text-anchor="middle" x="179" y="-50.8" font-family="Times,serif" font-size="14.00" fill="#163020"> &#160;&#160;Step 3: FlowGraph building</text>
</g>
</g>
</svg>
